<?xml version="1.0" encoding="utf-8"?>
<!-- Generator: Adobe Illustrator 26.0.0, SVG Export Plug-In . SVG Version: 6.00 Build 0)  -->
<svg version="1.1" id="图层_1" xmlns="http://www.w3.org/2000/svg" xmlns:xlink="http://www.w3.org/1999/xlink" x="0px" y="0px"
	 viewBox="0 0 960.66 540" style="enable-background:new 0 0 960.66 540;" xml:space="preserve">
<style type="text/css">
	.st0{fill:none;}
	.st1{fill:#FFFFFF;}
</style>
<g>
	<g>
		<path class="st1" d="M530.64,247.04c-3.49,16.95-8.52,36.87-15.1,59.75h-20.13c6.58-22.88,11.61-42.8,15.1-59.75H530.64z
			 M528.9,202.6h-20.13c-4-12.25-7.81-22.32-11.42-30.18h20.13C521.09,180.29,524.9,190.35,528.9,202.6z M530.84,239.68H510.7
			c-4-12.26-7.81-22.32-11.42-30.18h20.13C523.03,217.36,526.84,227.43,530.84,239.68z M604.6,294.99v-6.13h-67.37l0.19-14.25
			l1.74-22.06h-7.94v-15.32h9.1l2.52-32.63h-11.42c5.16-11.24,9.36-22.93,12.58-35.08h21.3c-0.78,3.37-1.74,6.74-2.9,10.11h68.92
			v15.32h-74.34l-3.1,7.36h70.47v34.93h9.29v15.32h-9.29v20.99h6.2v15.32h-6.2v9.5c0,2.65-1.06,4.72-3.2,6.2
			c-2.13,1.48-5,2.22-8.61,2.22H580.4l-4.65-11.8H604.6z M569.94,255.92h18.59c1.29,3.98,2.97,9.86,5.03,17.62h11.04v-20.99h-45.69
			l-1.36,20.99h17.42C572.91,265.78,571.24,259.9,569.94,255.92z M568.78,220.99h18.59c2.45,5.92,4.39,11.34,5.81,16.24h11.42
			v-19.61h-43.37l-1.36,19.61h14.71C573.17,232.33,571.24,226.91,568.78,220.99z"/>
		<path class="st1" d="M688.06,247.04c-3.49,16.95-8.52,36.87-15.1,59.75h-20.13c6.58-22.88,11.62-42.8,15.1-59.75H688.06z
			 M686.32,202.6h-20.14c-4-12.25-7.81-22.32-11.42-30.18h20.13C678.51,180.29,682.31,190.35,686.32,202.6z M688.25,239.68h-20.13
			c-4-12.26-7.81-22.32-11.42-30.18h20.14C680.44,217.36,684.25,227.43,688.25,239.68z M729.1,271.11v-30.04h-31.17v-15.32h31.17
			v-26.05h-36.2v-15.32h17.62c-2.32-6.74-4-11.44-5.03-14.09h19.75c1.03,2.66,2.71,7.36,5.03,14.09h18.97l0.97-3.06l3.49-11.03
			h19.75c-0.78,2.96-2.26,7.66-4.45,14.09h16.65v15.32h-36.4v26.05h31.36v15.32h-31.36v30.04h39.3v15.32h-39.3v20.35H729.1v-20.35
			h-39.11v-15.32H729.1z"/>
		<g>
			<path class="st1" d="M355.5,247.04c-1.42,6.74-3.39,14.02-5.9,21.83c-2.52,7.81-6.94,20.45-13.26,37.92h20.13
				c6.2-17.26,10.62-29.9,13.26-37.92c2.64-8.02,4.68-15.3,6.1-21.83H355.5z"/>
			<path class="st1" d="M385.7,268.87c-2.52,7.81-6.94,20.45-13.26,37.92h20.13c6.2-17.26,10.62-29.9,13.26-37.92
				c2.64-8.02,4.68-15.3,6.1-21.83h-20.33C390.19,253.78,388.22,261.05,385.7,268.87z"/>
			<path class="st1" d="M466.63,268.87c-2.52-7.81-4.48-15.09-5.9-21.83H440.4c1.42,6.53,3.45,13.81,6.1,21.83
				c2.64,8.02,7.07,20.66,13.26,37.92h20.13C473.57,289.32,469.15,276.68,466.63,268.87z"/>
			<path class="st1" d="M370.99,202.6c-4.52-12.25-8.71-22.32-12.59-30.18h-20.33c3.36,6.84,7.49,16.9,12.39,30.18H370.99z"/>
			<path class="st1" d="M340.79,209.5c3.87,7.87,8.07,17.93,12.58,30.18h20.52c-4.13-11.13-8.39-21.19-12.78-30.18H340.79z"/>
			<polygon class="st1" points="472.68,227.07 436.14,227.07 436.14,212.64 416.01,212.64 416.01,227.07 379.66,227.07 
				379.66,242.39 416.01,242.39 416.01,306.79 436.14,306.79 436.14,242.39 472.68,242.39 			"/>
			<path class="st1" d="M383.27,221.4h21.43c0,0,8.67-16.07,11.37-26.24h-18.08v-5.79h56.37v5.79h-18.08
				c2.7,10.17,11.37,26.24,11.37,26.24h21.43c-4.12-7.45-7.6-15.14-10.42-23.09h15.83v-8.94v-3.42v-11.9h-96.63v24.26h15.83
				C390.87,206.26,387.39,213.95,383.27,221.4z"/>
		</g>
		<g>
			<path class="st1" d="M208.78,202.6c-4.52-12.25-8.71-22.32-12.59-30.18h-20.33c3.36,6.84,7.49,16.9,12.39,30.18H208.78z"/>
			<polygon class="st1" points="219.32,294.99 205.59,289.96 205.59,208.71 198.5,208.71 185.84,208.71 173.47,208.71 
				173.47,224.03 185.84,224.03 185.84,290.02 176.09,306.79 195.84,306.79 199.96,299.69 219.32,306.79 219.32,306.79 
				315.9,306.79 320.54,294.99 			"/>
			<path class="st1" d="M261.94,289.58h20.13v-15.96h35.12v-15.32h-35.12v-18.07h30.19v-15.32h-30.19v-23.36h-20.13v23.36h-25.47
				c4.85-13.59,8.41-23.82,10.67-30.67c0.19-0.58,0.37-1.14,0.55-1.71h69.5v-15.32h-65.08c0.41-1.64,0.78-3.25,1.12-4.8h-20.33
				c-0.33,1.57-0.7,3.18-1.09,4.8h-20.4v15.32h16.11c-0.18,0.57-0.34,1.13-0.53,1.71c-2.15,6.68-5.71,16.92-10.65,30.67v15.32h45.59
				v18.07h-50.52v15.32h50.52V289.58z"/>
		</g>
	</g>
	<g>
		<path class="st1" d="M177.65,370.41V335.4h8.78v27.65h18.01v7.36H177.65z"/>
		<path class="st1" d="M214.74,370.41V335.4h8.78v35.01H214.74z"/>
		<path class="st1" d="M230.69,370.41l16.59-35.01h8.43l15.96,35.01h-9.75l-3.2-7.41h-15.41l-3.15,7.41H230.69z M246.31,355.93h9.26
			l-4.71-10.82L246.31,355.93z"/>
		<path class="st1" d="M278.74,370.41V335.4h10.77l17.49,24.69V335.4h8.43v35.01h-10.65l-17.66-24.93v24.93H278.74z"/>
		<path class="st1" d="M326.67,358.29h8.97v0.33c0,1.97,0.87,3.48,2.6,4.51c1.74,1.03,4.26,1.55,7.58,1.55
			c2.56,0,4.53-0.37,5.92-1.12c1.39-0.75,2.08-1.81,2.08-3.18c0-1.15-0.45-2-1.36-2.54c-0.91-0.54-2.74-0.96-5.5-1.24l-6.23-0.62
			c-4.55-0.47-7.89-1.51-10.03-3.1c-2.14-1.59-3.21-3.84-3.21-6.75c0-3.44,1.54-6.24,4.63-8.4c3.09-2.16,7.17-3.24,12.25-3.24
			c5.46,0,9.73,1.02,12.82,3.05c3.09,2.04,4.63,4.82,4.63,8.36v0.28h-8.71c-0.21-1.75-1.02-3.06-2.45-3.93
			c-1.43-0.87-3.48-1.3-6.14-1.3c-2.46,0-4.37,0.35-5.73,1.05c-1.36,0.7-2.04,1.69-2.04,2.97c0,1.03,0.4,1.78,1.2,2.25
			c0.8,0.47,2.76,0.88,5.88,1.23l6.51,0.69c4.48,0.49,7.78,1.57,9.88,3.23c2.11,1.67,3.16,4.01,3.16,7.04c0,3.9-1.58,6.86-4.75,8.89
			c-3.16,2.03-7.79,3.04-13.88,3.04c-5.81,0-10.27-1.07-13.4-3.2c-3.12-2.13-4.69-5.17-4.69-9.11V358.29z"/>
		<path class="st1" d="M374.63,370.41V335.4h8.78v13.14h16.81V335.4h8.74v35.01h-8.74v-14.54h-16.81v14.54H374.63z"/>
		<path class="st1" d="M421.66,370.41V335.4h31.08v7.08h-22.3v5.92h19.86v7.13h-19.86v7.53h22.3v7.36H421.66z"/>
		<path class="st1" d="M463.29,370.41V335.4h10.77l17.49,24.69V335.4h8.43v35.01h-10.65l-17.66-24.93v24.93H463.29z"/>
		<path class="st1" d="M535.25,370.41V335.4h11.34l11.29,25.07l11.6-25.07h11.24v35.01h-8.43v-23.36l-10.87,23.36h-7.32
			l-10.44-23.77v23.77H535.25z"/>
		<path class="st1" d="M587.79,370.41l16.59-35.01h8.43l15.96,35.01h-9.75l-3.2-7.41h-15.41l-3.15,7.41H587.79z M603.42,355.93h9.26
			l-4.71-10.82L603.42,355.93z"/>
		<path class="st1" d="M635.84,370.41V335.4h21.52c4.67,0,8.11,0.77,10.32,2.3c2.21,1.53,3.31,3.91,3.31,7.13
			c0,2.05-0.52,3.87-1.55,5.44c-1.03,1.58-2.46,2.71-4.27,3.41c1.55,0.65,2.63,1.45,3.26,2.4c0.62,0.95,0.99,2.64,1.1,5.05
			c0.02,0.24,0.03,0.56,0.05,0.97c0.19,4.34,0.8,7.11,1.85,8.31h-9.85c-0.24-0.38-0.41-0.8-0.53-1.25
			c-0.12-0.46-0.18-0.95-0.18-1.47v-2.37c0-3.22-0.41-5.33-1.24-6.32c-0.83-0.99-2.45-1.49-4.86-1.49h-0.21h-9.92v12.9H635.84z
			 M644.63,350.34h9.92c2.62,0,4.46-0.32,5.53-0.96c1.07-0.64,1.6-1.69,1.6-3.16c0-1.42-0.5-2.41-1.49-2.98
			c-0.99-0.57-3-0.85-6.01-0.85h-9.54V350.34z"/>
		<path class="st1" d="M682.28,370.41V335.4h8.78v35.01H682.28z"/>
		<path class="st1" d="M703.87,370.41V335.4h10.77l17.49,24.69V335.4h8.43v35.01h-10.65l-17.66-24.93v24.93H703.87z"/>
		<path class="st1" d="M753.27,370.41V335.4h31.08v7.08h-22.3v5.92h19.86v7.13h-19.86v7.53h22.3v7.36H753.27z"/>
	</g>
</g>
</svg>
